<svg version="1.1" id="Layer_1" xmlns="http://www.w3.org/2000/svg" x="0" y="0" viewBox="0 0 133.2 66.3" xml:space="preserve"><path d="M11.7 47.3h-7v-2.7H11v-4.3H4.7v-2.5h6.9v-4.3H0v18.2h11.7v-4.4zM40.2 45c1-.5 1.7-1.3 2.3-2.2.6-.9.8-1.9.8-3 0-1.8-.6-3.3-1.9-4.5-1.3-1.2-2.8-1.8-4.7-1.8h-7.3v18.2h4.7v-5.9h1.7l3.2 5.9h5L40.2 45zm-2.1-3.7c-.4.4-.8.6-1.4.5h-2.6v-4.1h2.6c.6 0 1 .2 1.4.6.4.4.5.9.5 1.5.1.7-.1 1.2-.5 1.5zm23.1 10.4h4.7V33.5h-4.7v18.2zm32-18.6c-2.7 0-4.9.9-6.8 2.7-1.8 1.8-2.8 4.1-2.8 6.7 0 2.7.9 4.9 2.8 6.7 1.8 1.8 4.1 2.7 6.8 2.7s4.9-.9 6.8-2.7c1.8-1.8 2.8-4.1 2.8-6.7 0-2.7-.9-4.9-2.8-6.7-1.9-1.8-4.1-2.7-6.8-2.7zm3.5 13.1c-.9.9-2.1 1.4-3.5 1.4s-2.6-.5-3.5-1.4c-.9-.9-1.4-2.1-1.4-3.5s.5-2.6 1.4-3.5c.9-.9 2.1-1.4 3.5-1.4s2.6.5 3.5 1.4c.9.9 1.4 2.1 1.4 3.5s-.5 2.5-1.4 3.5zm36-2.1c-.3-.7-.8-1.2-1.4-1.6-.6-.4-1.2-.7-1.8-.9-.5-.2-1.3-.5-2.1-.8-1.2-.4-2.1-.7-2.5-1-.4-.3-.6-.6-.6-1 0-.3.1-.6.4-.9.3-.2.7-.3 1.3-.3 1.3 0 2.3.7 2.8 2l3.9-2.3c-.6-1.4-1.5-2.4-2.7-3.1-1.2-.7-2.5-1.1-4.1-1.1-1.8 0-3.3.5-4.5 1.6-1.2 1-1.8 2.4-1.8 4.1 0 1.6.5 2.8 1.5 3.7 1 .9 2.3 1.6 4 2 1.2.3 1.9.6 2.3.7.8.3 1.2.8 1.2 1.3 0 .8-.7 1.2-2.1 1.2-1.7 0-2.9-.8-3.6-2.4l-4 2.3c.5 1.4 1.4 2.5 2.7 3.3 1.3.8 2.9 1.2 4.8 1.2 2.1 0 3.8-.5 5-1.5 1.3-1 1.9-2.4 1.9-4.2-.1-.9-.3-1.7-.6-2.3zM14.1 61.9H11v-2.7h-.9v6.3h.9v-2.8h3.1v2.8h.9v-6.3h-.9v2.7zm8.8-2.4c-.5-.3-1-.4-1.7-.4-.6 0-1.2.1-1.6.4-.5.3-.9.7-1.1 1.2-.3.5-.4 1.1-.4 1.7 0 .6.1 1.2.4 1.7.3.5.7.9 1.2 1.2.5.3 1 .4 1.6.4.6 0 1.2-.1 1.7-.4.5-.3.9-.7 1.1-1.2.3-.5.4-1.1.4-1.7 0-.6-.1-1.2-.4-1.7-.3-.5-.7-.9-1.2-1.2zm.3 4.1c-.2.4-.4.6-.8.8-.3.2-.7.3-1.2.3-.4 0-.8-.1-1.1-.3-.3-.2-.6-.5-.8-.8-.2-.4-.3-.8-.3-1.2 0-.5.1-.9.3-1.2.2-.4.4-.6.8-.8.3-.2.7-.3 1.1-.3.4 0 .8.1 1.2.3.3.2.6.5.8.8.2.4.3.8.3 1.2-.1.5-.2.9-.3 1.2zm3.4-3.5h2.1v5.4h.9v-5.4h2.1v-.9h-5.1v.9zm11.8 0v-.9h-4v6.3h4.1v-.9h-3.1v-1.9h2.8v-.9h-2.8V60h3zm4.1-.9h-.9v6.3h3.7v-.9h-2.8v-5.4zm6.8 1c.2-.2.5-.2.8-.2.3 0 .7.1.9.2.3.2.4.4.5.6l.9-.2c-.1-.3-.2-.6-.4-.8-.2-.2-.5-.4-.8-.6-.3-.1-.7-.2-1.1-.2-.4 0-.8.1-1.1.2-.3.2-.6.4-.8.7-.2.3-.3.6-.3 1 0 .5.1.8.4 1.1.3.3.6.5 1.1.6.6.1 1 .2 1.3.3.3.1.4.2.6.3.1.2.2.3.2.5 0 .3-.1.5-.4.7-.2.2-.6.3-.9.3-.4 0-.7-.1-1-.3-.3-.2-.5-.4-.5-.7l-1 .3c0 .4.2.7.4.9.2.3.5.5.9.6.4.1.7.2 1.1.2.4 0 .8-.1 1.1-.2.3-.1.6-.4.8-.6.2-.3.3-.6.3-1 0-.5-.2-.9-.5-1.2-.3-.3-.7-.5-1.3-.6-.5-.1-.8-.1-1-.2-.3 0-.5-.1-.6-.3-.1-.2-.2-.3-.2-.5V61c.2-.4.4-.6.6-.8zm15.3 4.5c-.1 0-.2-.1-.2-.2l-.3-.3c.2-.4.3-.7.4-1.1 0-.2.1-.5 0-.8l-.9.1v.2c0 .2 0 .4-.1.6 0 .2-.1.3-.1.4l-.7-.9c-.1-.2-.4-.5-.7-.9.3-.2.6-.4.7-.7.2-.2.2-.5.2-.8 0-.3-.1-.5-.2-.7-.1-.2-.3-.3-.5-.5-.2-.1-.4-.2-.7-.2-.3 0-.5.1-.7.2-.2.1-.4.3-.5.5-.1.2-.2.4-.2.7 0 .4.2.7.5 1.1-.3.1-.5.3-.7.4-.2.1-.4.3-.5.5-.2.3-.3.7-.3 1.1 0 .4.1.8.3 1.1.2.3.4.5.8.7.3.2.7.3 1.1.3.4 0 .7-.1 1.1-.2.3-.1.6-.3.9-.5l.2.2c.1.2.3.3.4.3.1.1.3.1.6.1h.7v-.8H65c-.2.2-.3.1-.4.1zm-3.3-4.6c.1-.1.2-.1.4-.1.1 0 .3 0 .3.1.1.1.2.2.2.3 0 .1 0 .2-.1.3l-.3.3c-.1.1-.1.1-.3.2l-.1-.1c0-.1-.1-.1-.1-.1-.1-.2-.2-.4-.2-.5.1-.2.1-.3.2-.4zm1 4.6c-.3.1-.5.2-.8.2-.3 0-.5-.1-.7-.2-.2-.1-.4-.3-.5-.5-.1-.2-.1-.4-.1-.5 0-.3.1-.5.2-.7.1-.1.2-.3.4-.4.2-.1.4-.2.6-.4 0 .1.3.4.7.9l.9 1.2c-.2.1-.4.3-.7.4zm14.5-2.9c.1-.2.1-.4.1-.7 0-.2 0-.5-.1-.7-.1-.2-.2-.4-.4-.6-.2-.2-.4-.3-.7-.4-.3-.1-.6-.1-1-.1h-2.6v6.3h.9V63h1.7l1.2 2.5H77l-1.3-2.7c.3-.1.6-.3.9-.6 0 0 .2-.2.2-.4zm-1.1 0c-.2.3-.5.4-1 .4H73v-2.1h1.7c.4 0 .8.1.9.3.1.1.1.2.2.3 0 .1.1.3.1.4 0 .3-.1.5-.2.7zm8.2-1.7v-.9h-4v6.3H84v-.9h-3.1v-1.9h2.8v-.9h-2.8V60h3zm4.4.1c.2-.2.5-.2.8-.2.3 0 .6.1.9.2.3.2.4.4.5.6l.9-.2c-.1-.3-.2-.6-.4-.8-.2-.2-.5-.4-.8-.6-.3-.1-.7-.2-1.1-.2-.4 0-.8.1-1.1.2-.3.2-.6.4-.8.7-.2.3-.3.6-.3 1 0 .5.1.8.4 1.1.3.3.6.5 1.1.6.6.1 1 .2 1.3.3.3.1.4.2.6.3.1.2.2.3.2.5 0 .3-.1.5-.4.7-.2.2-.6.3-.9.3-.4 0-.7-.1-1-.3-.3-.2-.5-.4-.5-.7l-1.1.3c0 .4.2.7.4.9.2.3.5.5.9.6.4.1.7.2 1.1.2.4 0 .8-.1 1.1-.2.3-.1.6-.4.8-.6.2-.3.3-.6.3-1 0-.5-.2-.9-.5-1.2-.3-.3-.7-.5-1.3-.6-.5-.1-.8-.1-1-.2-.3 0-.5-.1-.6-.3-.1-.2-.2-.3-.2-.5V61c.3-.4.4-.6.7-.8zm10.6-.7c-.5-.3-1-.4-1.7-.4-.6 0-1.2.1-1.6.4-.5.3-.9.7-1.1 1.2-.3.5-.4 1.1-.4 1.7 0 .6.1 1.2.4 1.7.3.5.7.9 1.2 1.2.5.3 1 .4 1.6.4.6 0 1.2-.1 1.7-.4.5-.3.9-.7 1.1-1.2.3-.5.4-1.1.4-1.7 0-.6-.1-1.2-.4-1.7-.4-.5-.7-.9-1.2-1.2zm.2 4.1c-.2.4-.4.6-.8.8-.3.2-.7.3-1.2.3-.4 0-.8-.1-1.1-.3-.3-.2-.6-.5-.8-.8-.2-.4-.3-.8-.3-1.2 0-.5.1-.9.3-1.2.2-.4.4-.6.8-.8.3-.2.7-.3 1.1-.3.4 0 .8.1 1.2.3.3.2.6.5.8.8.2.4.3.8.3 1.2 0 .5-.1.9-.3 1.2zm9-1.8c.1-.2.1-.4.1-.7 0-.2 0-.5-.1-.7-.1-.2-.2-.4-.4-.6-.2-.2-.4-.3-.7-.4-.3-.1-.6-.1-1-.1h-2.6v6.3h.9V63h1.7l1.2 2.5h1.1l-1.3-2.7c.3-.1.6-.3.9-.6.1 0 .2-.2.2-.4zm-1.1 0c-.2.3-.5.4-1 .4h-1.7v-2.1h1.7c.4 0 .8.1.9.3.1.1.1.2.2.3 0 .1.1.3.1.4 0 .3 0 .5-.2.7zm3.6-1.7h2.1v5.4h.9v-5.4h2.1v-.9h-5.1v.9zm8.9.1c.2-.2.5-.2.8-.2.3 0 .7.1.9.2.3.2.4.4.5.6l.9-.2c-.1-.3-.2-.6-.4-.8-.2-.2-.5-.4-.8-.6-.3-.1-.7-.2-1.1-.2-.4 0-.8.1-1.1.2-.3.2-.6.4-.8.7-.2.3-.3.6-.3 1 0 .5.1.8.4 1.1.3.3.6.5 1.1.6.6.1 1 .2 1.3.3.3.1.4.2.6.3.1.2.2.3.2.5 0 .3-.1.5-.4.7-.2.2-.6.3-.9.3-.4 0-.7-.1-1-.3s-.5-.4-.5-.7l-.9.1c0 .4.2.7.4.9.2.3.5.5.9.6.4.1.7.2 1.1.2.4 0 .8-.1 1.1-.2.3-.1.6-.4.8-.6.2-.3.3-.6.3-1 0-.5-.2-.9-.5-1.2-.3-.3-.7-.5-1.3-.6-.5-.1-.8-.1-1-.2-.3 0-.5-.1-.6-.3-.1-.2-.2-.3-.2-.5v-.1c.2-.2.3-.4.5-.6z"/><path fill-rule="evenodd" clip-rule="evenodd" fill="#EBBC79" d="M63.2 18.4l3.4-3.3 3.4 3.3M51.6 7.5l.9.9 2.6 2.5 1.7-1.7-5.3-5.1v-4l1 .9L59 7.2 65.5 1l1.1-1 1.1 1 6.5 6.2L80.6 1l.9-.9v4.1l-5.3 5.1 1.7 1.7 2.6-2.5.9-.9v4.1l-1.5 1.4 1.5 1.4v4l-15-14.3-15 14.3v-4l1.5-1.4-1.5-1.4V7.5zm30 15.8h-30v-2.9h30v2.9zm-25.5-5.9l9.4-9 1.1-1 1.1 1 9.4 9 1 1h-4.2l-7.2-6.9-7.2 6.9h-4.2l.8-1z"/></svg>